<svg xmlns="http://www.w3.org/2000/svg" width="1200" height="630" viewBox="0 0 1200 630">
<defs>
  <radialGradient id="bg" cx="50%" cy="45%" r="82%"><stop stop-color="#041427"/><stop offset=".52" stop-color="#120a2c"/><stop offset="1" stop-color="#02030a"/></radialGradient>
  <linearGradient id="auroraA" x1="0" y1="0" x2="1" y2="0"><stop stop-color="#38bdf8" stop-opacity="0"/><stop offset=".25" stop-color="#38bdf8" stop-opacity=".82"/><stop offset=".56" stop-color="#22d3ee" stop-opacity=".70"/><stop offset=".82" stop-color="#a855f7" stop-opacity=".72"/><stop offset="1" stop-color="#a855f7" stop-opacity="0"/></linearGradient>
  <linearGradient id="auroraB" x1="0" y1="0" x2="1" y2="0"><stop stop-color="#a855f7" stop-opacity="0"/><stop offset=".42" stop-color="#22d3ee" stop-opacity=".56"/><stop offset=".75" stop-color="#38bdf8" stop-opacity=".58"/><stop offset="1" stop-color="#38bdf8" stop-opacity="0"/></linearGradient>
  <linearGradient id="neonGradient" x1="0" y1="0" x2="1" y2="0"><stop stop-color="#38bdf8"/><stop offset=".5" stop-color="#22d3ee"/><stop offset="1" stop-color="#a855f7"/></linearGradient>
  <linearGradient id="titleGradient" x1="0" y1="0" x2="1" y2="0"><stop stop-color="#effcff"/><stop offset=".5" stop-color="#ecebff"/><stop offset="1" stop-color="#fff0fb"/></linearGradient>
  <linearGradient id="prismGradient" x1="0" y1="0" x2="1" y2="1"><stop stop-color="#38bdf8" stop-opacity=".48"/><stop offset=".5" stop-color="#22d3ee" stop-opacity=".10"/><stop offset="1" stop-color="#a855f7" stop-opacity=".44"/></linearGradient>
  <linearGradient id="glassGradient" x1="0" y1="0" x2="1" y2="1"><stop stop-color="#fff" stop-opacity=".13"/><stop offset=".48" stop-color="#fff" stop-opacity=".035"/><stop offset="1" stop-color="#22d3ee" stop-opacity=".12"/></linearGradient>
  <filter id="blur48"><feGaussianBlur stdDeviation="48"/></filter>
  <filter id="blur22"><feGaussianBlur stdDeviation="22"/></filter>
  <filter id="lineGlow"><feGaussianBlur stdDeviation="4" result="b"/><feMerge><feMergeNode in="b"/><feMergeNode in="SourceGraphic"/></feMerge></filter>
  <filter id="softGlow"><feGaussianBlur stdDeviation="3" result="b"/><feMerge><feMergeNode in="b"/><feMergeNode in="SourceGraphic"/></feMerge></filter>
  <filter id="titleGlow" x="-30%" y="-50%" width="160%" height="200%"><feGaussianBlur stdDeviation="6"/></filter>
  <radialGradient id="vignette" cx="50%" cy="50%" r="73%"><stop offset=".58" stop-color="#000" stop-opacity="0"/><stop offset="1" stop-color="#000" stop-opacity=".70"/></radialGradient>
</defs>
<rect width="1200" height="630" fill="url(#bg)"/>
<path d="M-160 422 C100 70 360 520 660 170 S1060 90 1360 433" fill="none" stroke="url(#auroraA)" stroke-width="172" filter="url(#blur48)" opacity=".94"/>
<path d="M-100 164 C220 500 500 90 800 414 S1110 465 1320 140" fill="none" stroke="url(#auroraB)" stroke-width="105" filter="url(#blur22)" opacity=".64"/>
<circle cx="845" cy="464" r="2.5" fill="#38bdf8" opacity="0.64"/><circle cx="342" cy="578" r="2.8" fill="#ffffff" opacity="0.21"/><circle cx="43" cy="616" r="1.8" fill="#ffffff" opacity="0.58"/><circle cx="419" cy="281" r="2.0" fill="#ffffff" opacity="0.48"/><circle cx="910" cy="183" r="1.6" fill="#ffffff" opacity="0.40"/><circle cx="444" cy="534" r="1.7" fill="#a855f7" opacity="0.51"/><circle cx="1042" cy="510" r="2.2" fill="#ffffff" opacity="0.32"/><circle cx="435" cy="37" r="1.1" fill="#ffffff" opacity="0.29"/><circle cx="294" cy="22" r="2.3" fill="#ffffff" opacity="0.55"/><circle cx="152" cy="532" r="1.0" fill="#ffffff" opacity="0.66"/><circle cx="419" cy="493" r="1.3" fill="#22d3ee" opacity="0.39"/><circle cx="546" cy="391" r="2.8" fill="#ffffff" opacity="0.18"/><circle cx="901" cy="226" r="2.5" fill="#ffffff" opacity="0.61"/><circle cx="693" cy="263" r="2.8" fill="#ffffff" opacity="0.46"/><circle cx="88" cy="442" r="0.9" fill="#ffffff" opacity="0.23"/><circle cx="439" cy="538" r="1.4" fill="#38bdf8" opacity="0.29"/><circle cx="1112" cy="90" r="2.3" fill="#ffffff" opacity="0.38"/><circle cx="207" cy="326" r="1.6" fill="#ffffff" opacity="0.44"/><circle cx="339" cy="332" r="1.8" fill="#ffffff" opacity="0.65"/><circle cx="856" cy="32" r="2.7" fill="#ffffff" opacity="0.53"/><circle cx="196" cy="375" r="1.5" fill="#a855f7" opacity="0.21"/><circle cx="681" cy="124" r="2.5" fill="#ffffff" opacity="0.37"/><circle cx="643" cy="142" r="2.6" fill="#ffffff" opacity="0.62"/><circle cx="204" cy="266" r="1.8" fill="#ffffff" opacity="0.56"/><circle cx="216" cy="428" r="1.6" fill="#ffffff" opacity="0.39"/><circle cx="313" cy="488" r="1.3" fill="#22d3ee" opacity="0.55"/><circle cx="723" cy="31" r="1.6" fill="#ffffff" opacity="0.32"/><circle cx="910" cy="112" r="1.6" fill="#ffffff" opacity="0.61"/><circle cx="447" cy="521" r="1.7" fill="#ffffff" opacity="0.28"/><circle cx="429" cy="377" r="0.8" fill="#ffffff" opacity="0.19"/><circle cx="148" cy="332" r="2.1" fill="#38bdf8" opacity="0.18"/><circle cx="593" cy="256" r="2.2" fill="#ffffff" opacity="0.66"/><circle cx="102" cy="330" r="0.9" fill="#ffffff" opacity="0.41"/><circle cx="320" cy="173" r="1.2" fill="#ffffff" opacity="0.56"/>

<g transform="translate(600 315) rotate(3)" fill="none" filter="url(#lineGlow)">
  <ellipse rx="350" ry="202" stroke="#38bdf8" stroke-opacity=".28" stroke-width="1.8" stroke-dasharray="9 18"/>
  <ellipse rx="412" ry="242" stroke="#a855f7" stroke-opacity=".20" stroke-width="1.5" stroke-dasharray="2 23"/>
  <path d="M-392 -18 A395 218 0 0 1 -175 -190" stroke="#38bdf8" stroke-width="3.5" opacity=".58"/>
  <path d="M175 190 A395 218 0 0 1 392 18" stroke="#a855f7" stroke-width="3.5" opacity=".58"/>
</g>

<g fill="none" stroke-linecap="round" filter="url(#lineGlow)">
  <path d="M40 160 H245 V235 H365" stroke="#38bdf8" stroke-opacity=".35" stroke-width="2"/>
  <path d="M1160 470 H965 V405 H840" stroke="#a855f7" stroke-opacity=".35" stroke-width="2"/>
  <path d="M110 520 H260 V457 H390" stroke="#22d3ee" stroke-opacity=".24"/>
  <path d="M1090 110 H930 V182 H820" stroke="#22d3ee" stroke-opacity=".24"/>
  <circle cx="245" cy="160" r="6" fill="#38bdf8" stroke="none"/>
  <circle cx="965" cy="470" r="6" fill="#a855f7" stroke="none"/>
  <rect x="338" y="222" width="28" height="28" rx="5" stroke="#38bdf8" stroke-opacity=".42"/>
  <rect x="834" y="391" width="28" height="28" rx="5" stroke="#a855f7" stroke-opacity=".42"/>
</g>
<rect x="170" y="210" width="860" height="150" rx="75" fill="#02040c" opacity=".18" filter="url(#blur22)"/>
<text x="600" y="322" font-family="'PingFang SC','Microsoft YaHei','Noto Sans CJK SC',sans-serif" font-size="56" font-weight="900" fill="url(#neonGradient)" opacity=".72" text-anchor="middle" filter="url(#titleGlow)">给技术博客做一套自动化封面生成系统</text>
<text x="600" y="322" font-family="'PingFang SC','Microsoft YaHei','Noto Sans CJK SC',sans-serif" font-size="56" font-weight="900" fill="url(#titleGradient)" stroke="#090b18" stroke-width="1.2" paint-order="stroke" text-anchor="middle">给技术博客做一套自动化封面生成系统</text>
<rect x="450" y="354" width="300" height="44" rx="22" fill="#070a18" opacity=".64" stroke="#22d3ee" stroke-opacity=".42"/>
<text x="600" y="383" font-family="'PingFang SC','Microsoft YaHei','Noto Sans CJK SC',sans-serif" font-size="20" fill="#eef2ff" text-anchor="middle" letter-spacing="5">AI探索 / AI Coding</text>
<rect width="1200" height="630" fill="url(#vignette)" pointer-events="none"/>
</svg>