<svg xmlns="http://www.w3.org/2000/svg" width="1200" height="630" viewBox="0 0 1200 630">
<defs>
  <radialGradient id="bg" cx="50%" cy="45%" r="82%"><stop stop-color="#071b2b"/><stop offset=".52" stop-color="#160d2c"/><stop offset="1" stop-color="#02030a"/></radialGradient>
  <linearGradient id="auroraA" x1="0" y1="0" x2="1" y2="0"><stop stop-color="#67e8f9" stop-opacity="0"/><stop offset=".25" stop-color="#67e8f9" stop-opacity=".82"/><stop offset=".56" stop-color="#60a5fa" stop-opacity=".70"/><stop offset=".82" stop-color="#c084fc" stop-opacity=".72"/><stop offset="1" stop-color="#c084fc" stop-opacity="0"/></linearGradient>
  <linearGradient id="auroraB" x1="0" y1="0" x2="1" y2="0"><stop stop-color="#c084fc" stop-opacity="0"/><stop offset=".42" stop-color="#60a5fa" stop-opacity=".56"/><stop offset=".75" stop-color="#67e8f9" stop-opacity=".58"/><stop offset="1" stop-color="#67e8f9" stop-opacity="0"/></linearGradient>
  <linearGradient id="neonGradient" x1="0" y1="0" x2="1" y2="0"><stop stop-color="#67e8f9"/><stop offset=".5" stop-color="#60a5fa"/><stop offset="1" stop-color="#c084fc"/></linearGradient>
  <linearGradient id="titleGradient" x1="0" y1="0" x2="1" y2="0"><stop stop-color="#effcff"/><stop offset=".5" stop-color="#ecebff"/><stop offset="1" stop-color="#fff0fb"/></linearGradient>
  <linearGradient id="prismGradient" x1="0" y1="0" x2="1" y2="1"><stop stop-color="#67e8f9" stop-opacity=".48"/><stop offset=".5" stop-color="#60a5fa" stop-opacity=".10"/><stop offset="1" stop-color="#c084fc" stop-opacity=".44"/></linearGradient>
  <linearGradient id="glassGradient" x1="0" y1="0" x2="1" y2="1"><stop stop-color="#fff" stop-opacity=".13"/><stop offset=".48" stop-color="#fff" stop-opacity=".035"/><stop offset="1" stop-color="#60a5fa" stop-opacity=".12"/></linearGradient>
  <filter id="blur48"><feGaussianBlur stdDeviation="48"/></filter>
  <filter id="blur22"><feGaussianBlur stdDeviation="22"/></filter>
  <filter id="lineGlow"><feGaussianBlur stdDeviation="4" result="b"/><feMerge><feMergeNode in="b"/><feMergeNode in="SourceGraphic"/></feMerge></filter>
  <filter id="softGlow"><feGaussianBlur stdDeviation="3" result="b"/><feMerge><feMergeNode in="b"/><feMergeNode in="SourceGraphic"/></feMerge></filter>
  <filter id="titleGlow" x="-30%" y="-50%" width="160%" height="200%"><feGaussianBlur stdDeviation="6"/></filter>
  <radialGradient id="vignette" cx="50%" cy="50%" r="73%"><stop offset=".58" stop-color="#000" stop-opacity="0"/><stop offset="1" stop-color="#000" stop-opacity=".70"/></radialGradient>
</defs>
<rect width="1200" height="630" fill="url(#bg)"/>
<path d="M-160 385 C100 70 360 520 660 163 S1060 90 1360 433" fill="none" stroke="url(#auroraA)" stroke-width="172" filter="url(#blur48)" opacity=".94"/>
<path d="M-100 195 C220 500 500 90 800 413 S1110 465 1320 140" fill="none" stroke="url(#auroraB)" stroke-width="105" filter="url(#blur22)" opacity=".64"/>
<circle cx="719" cy="422" r="1.3" fill="#67e8f9" opacity="0.42"/><circle cx="299" cy="120" r="0.8" fill="#ffffff" opacity="0.37"/><circle cx="944" cy="341" r="2.4" fill="#ffffff" opacity="0.63"/><circle cx="603" cy="566" r="2.4" fill="#ffffff" opacity="0.64"/><circle cx="137" cy="58" r="2.2" fill="#ffffff" opacity="0.34"/><circle cx="887" cy="147" r="2.3" fill="#c084fc" opacity="0.31"/><circle cx="1158" cy="432" r="2.8" fill="#ffffff" opacity="0.25"/><circle cx="352" cy="607" r="2.3" fill="#ffffff" opacity="0.50"/><circle cx="255" cy="439" r="1.1" fill="#ffffff" opacity="0.23"/><circle cx="848" cy="370" r="1.1" fill="#ffffff" opacity="0.56"/><circle cx="933" cy="367" r="2.7" fill="#60a5fa" opacity="0.18"/><circle cx="274" cy="342" r="2.7" fill="#ffffff" opacity="0.33"/><circle cx="76" cy="171" r="1.1" fill="#ffffff" opacity="0.25"/><circle cx="731" cy="543" r="2.8" fill="#ffffff" opacity="0.27"/><circle cx="784" cy="289" r="0.9" fill="#ffffff" opacity="0.45"/><circle cx="98" cy="65" r="2.0" fill="#67e8f9" opacity="0.38"/><circle cx="310" cy="273" r="1.1" fill="#ffffff" opacity="0.56"/><circle cx="737" cy="232" r="0.9" fill="#ffffff" opacity="0.25"/><circle cx="639" cy="406" r="2.8" fill="#ffffff" opacity="0.64"/><circle cx="999" cy="375" r="0.8" fill="#ffffff" opacity="0.20"/><circle cx="691" cy="542" r="2.1" fill="#c084fc" opacity="0.39"/><circle cx="22" cy="276" r="2.5" fill="#ffffff" opacity="0.60"/><circle cx="393" cy="350" r="2.2" fill="#ffffff" opacity="0.19"/><circle cx="1161" cy="62" r="1.4" fill="#ffffff" opacity="0.53"/><circle cx="347" cy="128" r="1.1" fill="#ffffff" opacity="0.34"/><circle cx="256" cy="439" r="2.7" fill="#60a5fa" opacity="0.46"/><circle cx="306" cy="112" r="2.0" fill="#ffffff" opacity="0.50"/><circle cx="459" cy="440" r="1.9" fill="#ffffff" opacity="0.51"/><circle cx="383" cy="448" r="0.9" fill="#ffffff" opacity="0.32"/><circle cx="112" cy="613" r="2.2" fill="#ffffff" opacity="0.60"/><circle cx="179" cy="410" r="1.2" fill="#67e8f9" opacity="0.61"/><circle cx="992" cy="604" r="1.7" fill="#ffffff" opacity="0.30"/><circle cx="795" cy="169" r="2.6" fill="#ffffff" opacity="0.38"/><circle cx="457" cy="495" r="1.0" fill="#ffffff" opacity="0.67"/>

<g transform="translate(600 315) rotate(-5)" fill="none" filter="url(#lineGlow)">
  <ellipse rx="350" ry="202" stroke="#67e8f9" stroke-opacity=".28" stroke-width="1.8" stroke-dasharray="9 18"/>
  <ellipse rx="412" ry="242" stroke="#c084fc" stroke-opacity=".20" stroke-width="1.5" stroke-dasharray="2 22"/>
  <path d="M-392 -18 A395 218 0 0 1 -175 -190" stroke="#67e8f9" stroke-width="3.5" opacity=".58"/>
  <path d="M175 190 A395 218 0 0 1 392 18" stroke="#c084fc" stroke-width="3.5" opacity=".58"/>
</g>

<g opacity=".24" filter="url(#softGlow)">
  <polygon points="126,70 461,24 331,305" fill="url(#prismGradient)"/>
  <polygon points="930,35 1180,175 865,310" fill="url(#prismGradient)"/>
  <polygon points="820,445 1145,340 1080,625" fill="url(#prismGradient)"/>
  <path d="M80 520 L335 455 L180 615 Z" fill="none" stroke="#67e8f9" stroke-opacity=".32"/>
</g>
<rect x="170" y="210" width="860" height="150" rx="75" fill="#02040c" opacity=".18" filter="url(#blur22)"/>
<text x="600" y="322" font-family="'PingFang SC','Microsoft YaHei','Noto Sans CJK SC',sans-serif" font-size="92" font-weight="900" fill="url(#neonGradient)" opacity=".72" text-anchor="middle" filter="url(#titleGlow)">资源加载与热更新</text>
<text x="600" y="322" font-family="'PingFang SC','Microsoft YaHei','Noto Sans CJK SC',sans-serif" font-size="92" font-weight="900" fill="url(#titleGradient)" stroke="#090b18" stroke-width="1.2" paint-order="stroke" text-anchor="middle">资源加载与热更新</text>
<rect x="450" y="354" width="300" height="44" rx="22" fill="#070a18" opacity=".64" stroke="#60a5fa" stroke-opacity=".42"/>
<text x="600" y="383" font-family="'PingFang SC','Microsoft YaHei','Noto Sans CJK SC',sans-serif" font-size="20" fill="#eef2ff" text-anchor="middle" letter-spacing="5">技术笔记 / Unity</text>
<rect width="1200" height="630" fill="url(#vignette)" pointer-events="none"/>
</svg>