<svg xmlns="http://www.w3.org/2000/svg" width="1200" height="630" viewBox="0 0 1200 630">
<defs>
  <radialGradient id="bg" cx="50%" cy="45%" r="82%"><stop stop-color="#07142f"/><stop offset=".52" stop-color="#190c32"/><stop offset="1" stop-color="#02030a"/></radialGradient>
  <linearGradient id="auroraA" x1="0" y1="0" x2="1" y2="0"><stop stop-color="#22d3ee" stop-opacity="0"/><stop offset=".25" stop-color="#22d3ee" stop-opacity=".82"/><stop offset=".56" stop-color="#6366f1" stop-opacity=".70"/><stop offset=".82" stop-color="#f052d1" stop-opacity=".72"/><stop offset="1" stop-color="#f052d1" stop-opacity="0"/></linearGradient>
  <linearGradient id="auroraB" x1="0" y1="0" x2="1" y2="0"><stop stop-color="#f052d1" stop-opacity="0"/><stop offset=".42" stop-color="#6366f1" stop-opacity=".56"/><stop offset=".75" stop-color="#22d3ee" stop-opacity=".58"/><stop offset="1" stop-color="#22d3ee" stop-opacity="0"/></linearGradient>
  <linearGradient id="neonGradient" x1="0" y1="0" x2="1" y2="0"><stop stop-color="#22d3ee"/><stop offset=".5" stop-color="#6366f1"/><stop offset="1" stop-color="#f052d1"/></linearGradient>
  <linearGradient id="titleGradient" x1="0" y1="0" x2="1" y2="0"><stop stop-color="#effcff"/><stop offset=".5" stop-color="#ecebff"/><stop offset="1" stop-color="#fff0fb"/></linearGradient>
  <linearGradient id="prismGradient" x1="0" y1="0" x2="1" y2="1"><stop stop-color="#22d3ee" stop-opacity=".48"/><stop offset=".5" stop-color="#6366f1" stop-opacity=".10"/><stop offset="1" stop-color="#f052d1" stop-opacity=".44"/></linearGradient>
  <linearGradient id="glassGradient" x1="0" y1="0" x2="1" y2="1"><stop stop-color="#fff" stop-opacity=".13"/><stop offset=".48" stop-color="#fff" stop-opacity=".035"/><stop offset="1" stop-color="#6366f1" stop-opacity=".12"/></linearGradient>
  <filter id="blur48"><feGaussianBlur stdDeviation="48"/></filter>
  <filter id="blur22"><feGaussianBlur stdDeviation="22"/></filter>
  <filter id="lineGlow"><feGaussianBlur stdDeviation="4" result="b"/><feMerge><feMergeNode in="b"/><feMergeNode in="SourceGraphic"/></feMerge></filter>
  <filter id="softGlow"><feGaussianBlur stdDeviation="3" result="b"/><feMerge><feMergeNode in="b"/><feMergeNode in="SourceGraphic"/></feMerge></filter>
  <filter id="titleGlow" x="-30%" y="-50%" width="160%" height="200%"><feGaussianBlur stdDeviation="6"/></filter>
  <radialGradient id="vignette" cx="50%" cy="50%" r="73%"><stop offset=".58" stop-color="#000" stop-opacity="0"/><stop offset="1" stop-color="#000" stop-opacity=".70"/></radialGradient>
</defs>
<rect width="1200" height="630" fill="url(#bg)"/>
<path d="M-160 409 C100 70 360 520 660 198 S1060 90 1360 438" fill="none" stroke="url(#auroraA)" stroke-width="172" filter="url(#blur48)" opacity=".94"/>
<path d="M-100 191 C220 500 500 90 800 385 S1110 465 1320 140" fill="none" stroke="url(#auroraB)" stroke-width="105" filter="url(#blur22)" opacity=".64"/>
<circle cx="202" cy="442" r="1.7" fill="#22d3ee" opacity="0.59"/><circle cx="990" cy="413" r="2.2" fill="#ffffff" opacity="0.65"/><circle cx="776" cy="311" r="1.8" fill="#ffffff" opacity="0.24"/><circle cx="594" cy="175" r="2.8" fill="#ffffff" opacity="0.61"/><circle cx="885" cy="475" r="1.3" fill="#ffffff" opacity="0.52"/><circle cx="543" cy="27" r="2.8" fill="#f052d1" opacity="0.46"/><circle cx="534" cy="281" r="1.1" fill="#ffffff" opacity="0.47"/><circle cx="1090" cy="106" r="2.1" fill="#ffffff" opacity="0.40"/><circle cx="604" cy="336" r="1.1" fill="#ffffff" opacity="0.29"/><circle cx="621" cy="233" r="1.6" fill="#ffffff" opacity="0.38"/><circle cx="809" cy="244" r="1.7" fill="#6366f1" opacity="0.50"/><circle cx="337" cy="499" r="2.3" fill="#ffffff" opacity="0.38"/><circle cx="455" cy="248" r="1.4" fill="#ffffff" opacity="0.47"/><circle cx="103" cy="132" r="1.5" fill="#ffffff" opacity="0.45"/><circle cx="1175" cy="347" r="1.2" fill="#ffffff" opacity="0.23"/><circle cx="144" cy="22" r="1.9" fill="#22d3ee" opacity="0.27"/><circle cx="263" cy="319" r="2.5" fill="#ffffff" opacity="0.60"/><circle cx="985" cy="493" r="1.4" fill="#ffffff" opacity="0.59"/><circle cx="93" cy="227" r="0.8" fill="#ffffff" opacity="0.48"/><circle cx="164" cy="349" r="1.4" fill="#ffffff" opacity="0.40"/><circle cx="1117" cy="269" r="2.5" fill="#f052d1" opacity="0.18"/><circle cx="782" cy="614" r="2.7" fill="#ffffff" opacity="0.46"/><circle cx="1142" cy="362" r="1.5" fill="#ffffff" opacity="0.34"/><circle cx="1142" cy="116" r="1.2" fill="#ffffff" opacity="0.32"/><circle cx="342" cy="605" r="1.3" fill="#ffffff" opacity="0.45"/><circle cx="149" cy="401" r="1.5" fill="#6366f1" opacity="0.51"/><circle cx="776" cy="486" r="1.2" fill="#ffffff" opacity="0.38"/><circle cx="825" cy="410" r="0.9" fill="#ffffff" opacity="0.48"/><circle cx="363" cy="28" r="1.7" fill="#ffffff" opacity="0.51"/><circle cx="711" cy="464" r="0.8" fill="#ffffff" opacity="0.67"/><circle cx="252" cy="318" r="1.5" fill="#22d3ee" opacity="0.39"/><circle cx="816" cy="69" r="2.4" fill="#ffffff" opacity="0.46"/><circle cx="935" cy="375" r="2.7" fill="#ffffff" opacity="0.48"/><circle cx="372" cy="388" r="2.3" fill="#ffffff" opacity="0.68"/>

<g transform="translate(600 315) rotate(-1)" fill="none" filter="url(#lineGlow)">
  <ellipse rx="350" ry="202" stroke="#22d3ee" stroke-opacity=".28" stroke-width="1.8" stroke-dasharray="12 18"/>
  <ellipse rx="412" ry="242" stroke="#f052d1" stroke-opacity=".20" stroke-width="1.5" stroke-dasharray="2 18"/>
  <path d="M-392 -18 A395 218 0 0 1 -175 -190" stroke="#22d3ee" stroke-width="3.5" opacity=".58"/>
  <path d="M175 190 A395 218 0 0 1 392 18" stroke="#f052d1" stroke-width="3.5" opacity=".58"/>
</g>

<g transform="translate(600 315) rotate(3)" fill="none" filter="url(#lineGlow)">
  <ellipse rx="285" ry="162" stroke="#6366f1" stroke-width="2" stroke-opacity=".24"/>
  <circle cx="-278" cy="-34" r="7" fill="#22d3ee" stroke="none"/>
  <circle cx="280" cy="42" r="7" fill="#f052d1" stroke="none"/>
  <circle cx="-278" cy="-34" r="18" stroke="#22d3ee" stroke-opacity=".32"/>
  <circle cx="280" cy="42" r="18" stroke="#f052d1" stroke-opacity=".32"/>
</g>
<rect x="170" y="210" width="860" height="150" rx="75" fill="#02040c" opacity=".18" filter="url(#blur22)"/>
<text x="600" y="322" font-family="'PingFang SC','Microsoft YaHei','Noto Sans CJK SC',sans-serif" font-size="112" font-weight="900" fill="url(#neonGradient)" opacity=".72" text-anchor="middle" filter="url(#titleGlow)">值语义与移动</text>
<text x="600" y="322" font-family="'PingFang SC','Microsoft YaHei','Noto Sans CJK SC',sans-serif" font-size="112" font-weight="900" fill="url(#titleGradient)" stroke="#090b18" stroke-width="1.2" paint-order="stroke" text-anchor="middle">值语义与移动</text>
<rect x="450" y="354" width="300" height="44" rx="22" fill="#070a18" opacity=".64" stroke="#6366f1" stroke-opacity=".42"/>
<text x="600" y="383" font-family="'PingFang SC','Microsoft YaHei','Noto Sans CJK SC',sans-serif" font-size="20" fill="#eef2ff" text-anchor="middle" letter-spacing="5">技术笔记 / C++</text>
<rect width="1200" height="630" fill="url(#vignette)" pointer-events="none"/>
</svg>