<svg xmlns="http://www.w3.org/2000/svg" width="1200" height="630" viewBox="0 0 1200 630">
<defs>
  <radialGradient id="bg" cx="50%" cy="45%" r="82%"><stop stop-color="#2d0c1c"/><stop offset=".52" stop-color="#101735"/><stop offset="1" stop-color="#02030a"/></radialGradient>
  <linearGradient id="auroraA" x1="0" y1="0" x2="1" y2="0"><stop stop-color="#fb7185" stop-opacity="0"/><stop offset=".25" stop-color="#fb7185" stop-opacity=".82"/><stop offset=".56" stop-color="#8b5cf6" stop-opacity=".70"/><stop offset=".82" stop-color="#22d3ee" stop-opacity=".72"/><stop offset="1" stop-color="#22d3ee" stop-opacity="0"/></linearGradient>
  <linearGradient id="auroraB" x1="0" y1="0" x2="1" y2="0"><stop stop-color="#22d3ee" stop-opacity="0"/><stop offset=".42" stop-color="#8b5cf6" stop-opacity=".56"/><stop offset=".75" stop-color="#fb7185" stop-opacity=".58"/><stop offset="1" stop-color="#fb7185" stop-opacity="0"/></linearGradient>
  <linearGradient id="neonGradient" x1="0" y1="0" x2="1" y2="0"><stop stop-color="#fb7185"/><stop offset=".5" stop-color="#8b5cf6"/><stop offset="1" stop-color="#22d3ee"/></linearGradient>
  <linearGradient id="titleGradient" x1="0" y1="0" x2="1" y2="0"><stop stop-color="#effcff"/><stop offset=".5" stop-color="#ecebff"/><stop offset="1" stop-color="#fff0fb"/></linearGradient>
  <linearGradient id="prismGradient" x1="0" y1="0" x2="1" y2="1"><stop stop-color="#fb7185" stop-opacity=".48"/><stop offset=".5" stop-color="#8b5cf6" stop-opacity=".10"/><stop offset="1" stop-color="#22d3ee" stop-opacity=".44"/></linearGradient>
  <linearGradient id="glassGradient" x1="0" y1="0" x2="1" y2="1"><stop stop-color="#fff" stop-opacity=".13"/><stop offset=".48" stop-color="#fff" stop-opacity=".035"/><stop offset="1" stop-color="#8b5cf6" stop-opacity=".12"/></linearGradient>
  <filter id="blur48"><feGaussianBlur stdDeviation="48"/></filter>
  <filter id="blur22"><feGaussianBlur stdDeviation="22"/></filter>
  <filter id="lineGlow"><feGaussianBlur stdDeviation="4" result="b"/><feMerge><feMergeNode in="b"/><feMergeNode in="SourceGraphic"/></feMerge></filter>
  <filter id="softGlow"><feGaussianBlur stdDeviation="3" result="b"/><feMerge><feMergeNode in="b"/><feMergeNode in="SourceGraphic"/></feMerge></filter>
  <filter id="titleGlow" x="-30%" y="-50%" width="160%" height="200%"><feGaussianBlur stdDeviation="6"/></filter>
  <radialGradient id="vignette" cx="50%" cy="50%" r="73%"><stop offset=".58" stop-color="#000" stop-opacity="0"/><stop offset="1" stop-color="#000" stop-opacity=".70"/></radialGradient>
</defs>
<rect width="1200" height="630" fill="url(#bg)"/>
<path d="M-160 392 C100 70 360 520 660 171 S1060 90 1360 410" fill="none" stroke="url(#auroraA)" stroke-width="172" filter="url(#blur48)" opacity=".94"/>
<path d="M-100 169 C220 500 500 90 800 397 S1110 465 1320 140" fill="none" stroke="url(#auroraB)" stroke-width="105" filter="url(#blur22)" opacity=".64"/>
<circle cx="878" cy="373" r="2.0" fill="#fb7185" opacity="0.23"/><circle cx="149" cy="496" r="1.4" fill="#ffffff" opacity="0.19"/><circle cx="531" cy="176" r="2.7" fill="#ffffff" opacity="0.63"/><circle cx="320" cy="545" r="2.6" fill="#ffffff" opacity="0.23"/><circle cx="590" cy="75" r="2.2" fill="#ffffff" opacity="0.24"/><circle cx="849" cy="54" r="1.7" fill="#22d3ee" opacity="0.26"/><circle cx="313" cy="153" r="2.6" fill="#ffffff" opacity="0.49"/><circle cx="894" cy="502" r="1.3" fill="#ffffff" opacity="0.50"/><circle cx="1084" cy="455" r="2.2" fill="#ffffff" opacity="0.60"/><circle cx="992" cy="27" r="1.4" fill="#ffffff" opacity="0.32"/><circle cx="745" cy="24" r="2.0" fill="#8b5cf6" opacity="0.59"/><circle cx="1080" cy="430" r="1.0" fill="#ffffff" opacity="0.51"/><circle cx="709" cy="399" r="2.2" fill="#ffffff" opacity="0.23"/><circle cx="624" cy="329" r="1.5" fill="#ffffff" opacity="0.63"/><circle cx="1000" cy="26" r="1.9" fill="#ffffff" opacity="0.30"/><circle cx="1150" cy="263" r="0.9" fill="#fb7185" opacity="0.22"/><circle cx="822" cy="365" r="2.8" fill="#ffffff" opacity="0.66"/><circle cx="985" cy="575" r="1.4" fill="#ffffff" opacity="0.21"/><circle cx="178" cy="516" r="2.4" fill="#ffffff" opacity="0.48"/><circle cx="43" cy="205" r="1.5" fill="#ffffff" opacity="0.43"/><circle cx="305" cy="540" r="2.8" fill="#22d3ee" opacity="0.27"/><circle cx="616" cy="471" r="1.5" fill="#ffffff" opacity="0.31"/><circle cx="778" cy="416" r="1.5" fill="#ffffff" opacity="0.32"/><circle cx="837" cy="161" r="0.9" fill="#ffffff" opacity="0.39"/><circle cx="151" cy="402" r="2.1" fill="#ffffff" opacity="0.25"/><circle cx="1167" cy="258" r="2.4" fill="#8b5cf6" opacity="0.44"/><circle cx="501" cy="531" r="1.3" fill="#ffffff" opacity="0.32"/><circle cx="494" cy="83" r="1.7" fill="#ffffff" opacity="0.20"/><circle cx="690" cy="192" r="2.5" fill="#ffffff" opacity="0.39"/><circle cx="849" cy="513" r="1.5" fill="#ffffff" opacity="0.51"/><circle cx="511" cy="86" r="1.8" fill="#fb7185" opacity="0.51"/><circle cx="847" cy="449" r="0.8" fill="#ffffff" opacity="0.66"/><circle cx="293" cy="610" r="1.4" fill="#ffffff" opacity="0.55"/><circle cx="161" cy="598" r="2.1" fill="#ffffff" opacity="0.33"/>

<g transform="translate(600 315) rotate(2)" fill="none" filter="url(#lineGlow)">
  <ellipse rx="350" ry="202" stroke="#fb7185" stroke-opacity=".28" stroke-width="1.8" stroke-dasharray="10 18"/>
  <ellipse rx="412" ry="242" stroke="#22d3ee" stroke-opacity=".20" stroke-width="1.5" stroke-dasharray="2 24"/>
  <path d="M-392 -18 A395 218 0 0 1 -175 -190" stroke="#fb7185" stroke-width="3.5" opacity=".58"/>
  <path d="M175 190 A395 218 0 0 1 392 18" stroke="#22d3ee" stroke-width="3.5" opacity=".58"/>
</g>

<g>
  <rect x="145" y="104" width="910" height="422" rx="38" fill="url(#glassGradient)" stroke="#ffffff" stroke-opacity=".24" stroke-width="1.4"/>
  <path d="M185 150 H340" stroke="#fb7185" stroke-width="3" opacity=".78"/>
  <path d="M860 480 H1015" stroke="#22d3ee" stroke-width="3" opacity=".78"/>
  <circle cx="980" cy="155" r="6" fill="#fb7185"/><circle cx="1002" cy="155" r="6" fill="#8b5cf6"/><circle cx="1024" cy="155" r="6" fill="#22d3ee"/>
</g>
<rect x="170" y="210" width="860" height="150" rx="75" fill="#02040c" opacity=".18" filter="url(#blur22)"/>
<text x="600" y="322" font-family="'PingFang SC','Microsoft YaHei','Noto Sans CJK SC',sans-serif" font-size="72" font-weight="900" fill="url(#neonGradient)" opacity=".72" text-anchor="middle" filter="url(#titleGlow)">LEngine 框架</text>
<text x="600" y="322" font-family="'PingFang SC','Microsoft YaHei','Noto Sans CJK SC',sans-serif" font-size="72" font-weight="900" fill="url(#titleGradient)" stroke="#090b18" stroke-width="1.2" paint-order="stroke" text-anchor="middle">LEngine 框架</text>
<rect x="450" y="354" width="300" height="44" rx="22" fill="#070a18" opacity=".64" stroke="#8b5cf6" stroke-opacity=".42"/>
<text x="600" y="383" font-family="'PingFang SC','Microsoft YaHei','Noto Sans CJK SC',sans-serif" font-size="20" fill="#eef2ff" text-anchor="middle" letter-spacing="5">项目实战 / Unity</text>
<rect width="1200" height="630" fill="url(#vignette)" pointer-events="none"/>
</svg>