<?xml version="1.0" standalone="no"?><!DOCTYPE svg PUBLIC "-//W3C//DTD SVG 1.1//EN" "http://www.w3.org/Graphics/SVG/1.1/DTD/svg11.dtd"><svg t="1749032129744" class="icon" viewBox="0 0 1024 1024" version="1.1" xmlns="http://www.w3.org/2000/svg" p-id="1506" xmlns:xlink="http://www.w3.org/1999/xlink" width="200" height="200"><path d="M307.2 224h601.6A51.2 51.2 0 0 1 960 275.2V672H256V275.2A51.2 51.2 0 0 1 307.2 224z" fill="#CAE705" p-id="1507"></path><path d="M272 912a32 32 0 0 1 0-64h512a32 32 0 0 1 0 64h-512z" fill="#2B82D8" p-id="1508"></path><path d="M496 720h64V864h-64z" fill="#2B82D8" p-id="1509"></path><path d="M128 192v512h768V192H128z m0-64h768a64 64 0 0 1 64 64v512a64 64 0 0 1-64 64H128a64 64 0 0 1-64-64V192a64 64 0 0 1 64-64z" fill="#2B82D8" p-id="1510"></path><path d="M128 672v32h768v-32H128z m-64-64h896v96a64 64 0 0 1-64 64H128a64 64 0 0 1-64-64v-96z" fill="#2B82D8" p-id="1511"></path></svg>